# xmcd
#
# Track frame offsets:
#	150
#	22900
#	37800
#	56092
#	73750
#	89635
#	107925
#	122750
#	141175
#	158075
#	179550
#	197675
#	220875
#	239525
#	259275
#
# Disc length: 3729 seconds
#
# Revision: 6
# Processed by: cddbd v1.5.2PL0 Copyright (c) Steve Scherf et al.
# Submitted via: audiograbber 1.83.01
#
DISCID=e00e8f0f
DTITLE=Various Artist - Italo Super-Hits [CD 1)
DYEAR=1989
DGENRE=Italo Songs
TTITLE0=Eros Ramazzotti - Solo Con Te
TTITLE1=Scialpi - Solitario (So Long)
TTITLE2=Fiorella Mannoia - I Dubbi Dell´ Amore
TTITLE3=Paolo Conte - Sud America
TTITLE4=Christian - Rimini
TTITLE5=Lijao - Per Noi Giovani
TTITLE6=Pupo and Fiordaliso - La vita É Molto Di Più
TTITLE7=Dori Ghezzi - Il Cuore Delle Donne
TTITLE8=Al Bano and Romina Power - Al Ritmo Di Beguine (Ti Amo)
TTITLE9=Mimmo Cavallo - Voglio Un Futuro Possibile
TTITLE10=Nino D´Angelo - Batticuore
TTITLE11=Lucio Battisti - Il Mio Canto Libero
TTITLE12=Paola Turci - Bambini
TTITLE13=Enzo Jannacci - Se Me Lo Dicevi Prima
TTITLE14=Renato Zero - Il Carrozzone
EXTD=
EXTT0=
EXTT1=
EXTT2=
EXTT3=
EXTT4=
EXTT5=
EXTT6=
EXTT7=
EXTT8=
EXTT9=
EXTT10=
EXTT11=
EXTT12=
EXTT13=
EXTT14=
PLAYORDER=
